<?xml version="1.0" standalone="no"?>
<!DOCTYPE svg PUBLIC "-//W3C//DTD SVG 20010904//EN"
 "http://www.w3.org/TR/2001/REC-SVG-20010904/DTD/svg10.dtd">
<svg version="1.0" xmlns="http://www.w3.org/2000/svg"
 width="204.000000pt" height="171.000000pt" viewBox="0 0 204.000000 171.000000"
 preserveAspectRatio="xMidYMid meet">

<g transform="translate(0.000000,171.000000) scale(0.100000,-0.100000)"
fill="#fff" stroke="none">
<path d="M27 1668 c10 -18 230 -399 488 -846 371 -643 471 -810 480 -800 13
14 953 1640 962 1664 4 12 -33 14 -224 14 l-229 0 -254 -440 c-140 -242 -257
-440 -260 -440 -3 0 -118 197 -257 438 l-252 437 -236 3 -237 2 19 -32z"/>
<path d="M1741 1150 c-129 -223 -269 -466 -312 -540 l-78 -135 336 -3 c185 -1
338 0 341 3 3 3 -7 247 -24 543 l-29 537 -234 -405z"/>
<path d="M10 1003 l0 -543 310 0 c171 0 310 2 310 5 0 3 -134 239 -298 523
-164 284 -304 526 -310 537 -9 15 -11 -111 -12 -522z"/>
</g>
</svg>
